<?xml version="1.0" encoding="UTF-8"?>
<svg id="Layer_2" data-name="Layer 2" xmlns="http://www.w3.org/2000/svg" viewBox="0 0 226.17 274.34">
  <defs>
    <style>
      .cls-1 {
        fill: #1f33b9;
      }
    </style>
  </defs>
  <path class="cls-1" d="M112.71,7c23.36,0,44.75,6.91,63.57,20.53,8.44,6.11,14.45,12.28,17.96,16.31l-30.3,29.71c-8.16-9.42-25.98-25.01-54.69-25.01-12.63,0-24.22,4.15-32.62,11.68-7.91,7.09-12.45,16.62-12.45,26.14,0,8.65,3.74,16.45,10.53,21.96,7.1,5.76,17.36,8.81,29.67,8.81,2,0,4.09-.08,6.21-.24,4.04-.3,8.07-.45,11.98-.45,28.12,0,52.38,7.66,70.14,22.14,19.73,16.09,29.34,39.41,25.7,62.38-1.94,12.22-7.64,23.98-16.5,34.01-9.95,11.26-23.57,20.29-40.51,26.86-9.43,3.66-20.4,5.51-32.6,5.51-35.71,0-70.44-15.87-70.79-16.03l-1.52-.71-1.68.06c-7.76.28-13.62,3.87-16.5,10.12-.87,1.88-1.38,3.79-1.68,5.6l-29.59.02-.04-81.62h42.3c2.42,4.37,6.92,11.6,13.69,18.82,14.26,15.21,31.83,23.24,50.81,23.24,7.58,0,15.47-1.27,23.48-3.78,12.94-4.06,22.79-14.27,25.72-26.66,2.68-11.35-.8-22.69-9.53-31.12-13.24-12.77-34.62-15.45-50.23-15.45-30.4,0-54.93-6.65-70.93-19.23-13.53-10.64-20.68-25.1-20.68-41.83,0-19.57,9.81-39.64,26.91-55.06C57.64,16.48,83.98,7,112.71,7M112.71,0C-8.92,0-48.56,156.83,103.24,156.83c22.68,0,37.23,5.64,45.37,13.49,16.06,15.49,7.19,39.6-13.42,46.06-7.71,2.42-14.83,3.46-21.38,3.46-41.58,0-60.23-42.06-60.23-42.06H0l.05,95.63,43.16-.03c-.01-4.8-.25-15.28,11.86-15.72,0,0,35.95,16.68,73.73,16.68,11.88,0,23.95-1.65,35.13-5.99,73.36-28.46,78.43-98.31,33.2-135.2-17.6-14.36-42.8-23.72-74.56-23.72-4.06,0-8.23.15-12.5.47-1.98.15-3.87.22-5.69.22-50.55,0-38.89-54.59,4.87-54.59,36.76,0,53.91,28.58,53.91,28.58l40.5-39.7S173.16,0,112.71,0h0Z"/>
  <path class="cls-1" d="M196.33,39.94c-13.83,9.35-27.09,19.54-39.7,30.49l2.36,1.82c10.16-13.19,20.33-26.38,30.49-39.57l-2.74-1.16c-2.78,7.12-8.92,12.22-14.7,16.88-7.07,5.7-14.22,11.31-21.43,16.83l2.05,2.05c9.61-14.18,20.55-27.41,30.17-41.59l-2.8-.76c-.25,3.3-2.99,4.77-5.51,6.37-3.37,2.13-6.36,4.84-9.32,7.49-6.53,5.83-12.62,12.14-18.25,18.84l2.12,2.12c9.08-11.64,18.16-23.27,27.24-34.91,1.17-1.5-.63-3.41-2.12-2.12-7.1,6.15-14.21,12.3-21.31,18.45-5.62,4.86-11.42,10.1-13.63,17.45-.48,1.59,2.02,2.73,2.74,1.16,6.47-14.07,14.36-27.46,23.54-39.93l-2.59-1.51c-8.85,12.34-18.36,24.19-28.5,35.5l2.36,1.82c7.87-13.34,15.74-26.67,23.61-40.01.98-1.67-1.58-3.16-2.59-1.51-8.08,13.22-17.5,25.58-28.1,36.89l2.51,1.46c2.72-12.47,7.42-24.41,13.94-35.38.89-1.49-1.12-2.96-2.36-1.82-8.93,8.25-15.67,18.66-19.62,30.15l2.95.4c-.13-6.79,1.32-13.47,2.51-20.12s2.43-13.51,3.64-20.27l-2.95-.4c-.66,8.64-1.95,17.22-3.88,25.67-.87,3.8-1.76,7.64-3.06,11.32-1.09,3.07-2.67,6.14-5.46,7.99l2.26,1.3c.56-16.22,1.13-32.44,1.69-48.66.06-1.67-2.6-2.07-2.95-.4-3.24,15.65-6.48,31.3-9.72,46.95l2.95.4c.64-14.64,1.2-29.46-2.12-43.85-.38-1.63-3.03-1.3-2.95.4.78,16-.2,32.07-2.99,47.85h2.89c-1.64-8.9-3.28-17.79-4.91-26.69-.41-2.2-.81-4.41-1.22-6.61s-.65-4.29-1.19-6.36c-.72-2.78-3.17-6.23-6.39-4.51-.44.23-.78.79-.74,1.3.88,13.21,1.76,26.42,2.64,39.63l2.95-.4c-4.5-14.14-9.16-28.6-18.05-40.7-.76-1.03-3.01-.9-2.8.76,1.85,14.57,5.24,28.89,10.19,42.72l2.2-1.69c-5.27-3.88-7.96-10.19-10.57-15.96s-5.5-11.58-10.49-15.61c-2.74-2.21-5.85-3.63-9.36-3.98-1.12-.11-1.89,1.36-1.3,2.26,5.13,7.69,10.25,15.38,15.38,23.08,2.41,3.62,4.91,7.19,7.22,10.87,1.68,2.67,2.27,5.13,2.24,8.28l2.56-1.06c-13.16-12.99-26.82-25.46-39.99-38.45-1.29-1.27-3.02.33-2.36,1.82,6.14,13.81,21.32,20.46,28.21,33.75,1.91,3.68,2.91,7.69,2.55,11.84l2.56-1.06c-11.92-13.11-25.53-24.65-40.4-34.3-1.27-.82-2.82.8-2.05,2.05,8.35,13.68,24.47,20.06,32.88,33.64l1.69-2.2c-14.27-5.72-28.34-11.93-42.18-18.61-1.49-.72-3.06,1.08-1.82,2.36,11.77,12.14,26.34,20.95,40.74,29.58l1.51-2.59c-15.95-7.71-31.91-15.42-47.86-23.13-1.73-.84-3.25,1.75-1.51,2.59,15.95,7.71,31.91,15.42,47.86,23.13,1.72.83,3.19-1.58,1.51-2.59-14.19-8.51-28.54-17.15-40.14-29.11l-1.82,2.36c14.08,6.79,28.39,13.09,42.9,18.91,1.24.5,2.34-1.16,1.69-2.2-8.43-13.61-24.55-20-32.88-33.64l-2.05,2.05c14.66,9.51,28.04,20.9,39.79,33.83.95,1.04,2.46.14,2.56-1.06.68-7.73-3.1-14.81-7.86-20.61s-10.99-10.53-16.17-16.11c-2.88-3.1-5.4-6.5-7.13-10.38l-2.36,1.82c13.16,12.99,26.82,25.46,39.99,38.45.93.92,2.55.24,2.56-1.06.03-3.23-.49-6.13-2.13-8.94-2.19-3.74-4.78-7.29-7.19-10.9-5.31-7.97-10.62-15.94-15.94-23.91l-1.3,2.26c7.9.79,12.83,8.63,15.9,15.14,3.42,7.26,6.32,15.07,13.01,20,1.04.77,2.63-.51,2.2-1.69-4.85-13.56-8.27-27.63-10.08-41.92l-2.8.76c8.75,11.9,13.31,26.06,17.74,39.98.49,1.54,3.06,1.36,2.95-.4-.88-13.21-1.76-26.42-2.64-39.63l-.74,1.3c1.73-.92,2.76,6.83,2.9,7.61.71,3.84,1.41,7.67,2.12,11.51,1.43,7.75,2.85,15.51,4.28,23.26.26,1.43,2.64,1.44,2.89,0,2.83-16.05,3.89-32.37,3.1-48.65l-2.95.4c3.26,14.11,2.64,28.69,2.02,43.05-.07,1.67,2.6,2.07,2.95.4,3.24-15.65,6.48-31.3,9.72-46.95l-2.95-.4c-.56,16.22-1.13,32.44-1.69,48.66-.04,1.1,1.32,1.92,2.26,1.3,6.48-4.3,8.03-13.12,9.67-20.16,2.11-9.01,3.5-18.18,4.21-27.41.13-1.67-2.65-2.07-2.95-.4-1.24,6.92-2.48,13.83-3.73,20.75s-2.67,13.55-2.53,20.44c.03,1.73,2.4,1.98,2.95.4,3.79-11.01,10.31-20.93,18.85-28.83l-2.36-1.82c-6.64,11.17-11.47,23.39-14.24,36.09-.3,1.39,1.43,2.61,2.51,1.46,10.77-11.49,20.35-24.06,28.57-37.5l-2.59-1.51c-7.87,13.34-15.74,26.67-23.61,40.01-.85,1.44,1.2,3.11,2.36,1.82,10.3-11.5,19.97-23.55,28.97-36.1,1.13-1.58-1.46-3.05-2.59-1.51-9.18,12.48-17.07,25.86-23.54,39.93l2.74,1.16c2.15-7.13,8.2-12.08,13.62-16.78,6.85-5.93,13.7-11.87,20.56-17.8l-2.12-2.12c-9.08,11.64-18.16,23.27-27.24,34.91-1.16,1.49.86,3.62,2.12,2.12,5.92-7.05,12.36-13.67,19.27-19.75,1.7-1.49,3.41-2.99,5.19-4.39,1.36-1.07,2.88-1.92,4.33-2.88,2.92-1.92,4.9-4.2,5.17-7.8.12-1.6-2.03-1.89-2.8-.76-9.61,14.18-20.55,27.41-30.17,41.59-.81,1.19.85,2.97,2.05,2.05,7.52-5.76,14.98-11.6,22.35-17.55,6.16-4.98,12.22-10.4,15.16-17.95.27-.69-.24-1.51-.87-1.77-.74-.31-1.41.01-1.87.61-10.16,13.19-20.33,26.38-30.49,39.57-1.1,1.42,1.15,2.86,2.36,1.82,12.41-10.79,25.47-20.81,39.09-30.02,1.59-1.08.09-3.68-1.51-2.59h0Z"/>
</svg>