<?xml version="1.0" encoding="UTF-8"?>
<svg id="Layer_2" data-name="Layer 2" xmlns="http://www.w3.org/2000/svg" viewBox="0 0 226.17 273.9">
  <defs>
    <style>
      .cls-1 {
        fill: #1f33b9;
      }
    </style>
  </defs>
  <g>
    <g>
      <path class="cls-1" d="M167.25,80.1l-4.09,4.01s-1.06-1.77-3.22-4.42c1.86,2.25,5.23,2.45,7.31.41Z"/>
      <path class="cls-1" d="M159.94,79.69c2.16,2.65,3.22,4.42,3.22,4.42l4.09-4.01c-.97.95-2.21,1.41-3.45,1.41-1.43,0-2.86-.62-3.86-1.82h0Z"/>
    </g>
    <g>
      <path class="cls-1" d="M200.53,47.48c1.78-1.77,1.96-4.58.43-6.55,1.8,2.17,2.7,3.48,2.7,3.48l-3.13,3.07Z"/>
      <path class="cls-1" d="M200.96,40.93c1.53,1.97,1.35,4.78-.43,6.55l3.13-3.07s-.9-1.31-2.7-3.48h0Z"/>
    </g>
    <path class="cls-1" d="M53.68,257.76h-.05c-.05.01-.09.01-.13.02.05,0,.12,0,.18-.02h0Z"/>
  </g>
  <g>
    <path class="cls-1" d="M200.53,47.48s-.01,0-.02.02l-33.26,32.6c-2.08,2.04-5.45,1.84-7.31-.41,0-.01-.01-.02-.02-.03-.13-.17-.27-.34-.42-.51-1.02-1.22-2.25-2.61-3.71-4.08-.2-.21-.41-.42-.63-.63-2.93-2.91-6.7-6.1-11.31-9.02-.39-.24-.78-.48-1.18-.72-.76-.46-1.55-.92-2.36-1.36-.36-.2-.73-.4-1.1-.59-1.14-.59-2.32-1.16-3.54-1.71-.4-.18-.81-.36-1.23-.53-.41-.18-.83-.35-1.26-.52-1.27-.5-2.58-.97-3.94-1.4-.44-.15-.9-.29-1.35-.42-.69-.2-1.4-.4-2.11-.58-.35-.09-.7-.18-1.06-.27-.37-.08-.74-.17-1.12-.25-.49-.11-.98-.22-1.48-.31-1.49-.29-3.03-.54-4.61-.73-.53-.07-1.06-.13-1.6-.18-.53-.05-1.07-.1-1.62-.14-.49-.03-.99-.06-1.49-.09-1.16-.06-2.35-.09-3.55-.09-7.56,0-14.16,1.63-19.65,4.33-.34.17-.68.34-1.01.52-.28.14-.56.3-.84.46-.87.48-1.71,1-2.52,1.55-.32.2-.63.42-.93.64-.39.27-.76.55-1.12.83-.47.37-.93.74-1.38,1.13-.32.27-.63.55-.93.83-.23.21-.46.43-.68.66-.09.08-.19.17-.28.27-1.21,1.21-2.31,2.5-3.28,3.83l-2.91-2.81-.82-.8-.05-.04-2.13-2.06s0,0,0,0l-28.33-27.39-5.01-4.85-.48-.46-3.42-3.31c1.37-1.25,2.79-2.47,4.25-3.66,1.39-1.13,2.82-2.23,4.29-3.3.52-.39,1.04-.76,1.57-1.13.64-.45,1.28-.9,1.94-1.33.42-.29.84-.57,1.27-.83.25-.18.51-.34.77-.5.39-.26.78-.5,1.18-.75.36-.23.72-.45,1.09-.66.45-.27.9-.54,1.36-.81,1.38-.81,2.79-1.59,4.22-2.34.41-.22.82-.43,1.24-.63,1.04-.54,2.08-1.05,3.15-1.55.74-.35,1.48-.69,2.24-1.03,0,0,0,0,.02,0,.63-.27,1.26-.55,1.9-.82.33-.14.67-.28,1.02-.42.48-.2.97-.4,1.47-.59.74-.3,1.49-.58,2.24-.86.91-.34,1.82-.66,2.75-.98C83.79,2.41,97.62,0,112.71,0c1.98,0,3.93.05,5.85.14.66.03,1.31.07,1.96.11.29.02.58.04.87.06.65.05,1.3.1,1.95.16.96.08,1.91.18,2.85.29.44.05.88.1,1.32.16.63.07,1.25.15,1.87.25.64.08,1.27.18,1.9.28.11.01.22.03.33.05.73.12,1.46.24,2.18.38.11,0,.21.03.31.05.78.15,1.56.3,2.34.46.73.15,1.44.3,2.16.47.58.13,1.16.27,1.74.41.1.02.21.05.31.07.4.1.8.2,1.19.3.45.12.9.24,1.35.36,2.31.63,4.56,1.32,6.74,2.06.4.14.8.27,1.2.42,1.15.4,2.29.82,3.4,1.26.54.2,1.07.42,1.6.63.89.36,1.76.73,2.62,1.11.62.27,1.23.54,1.84.82.65.3,1.29.6,1.93.91.64.3,1.27.61,1.89.93.62.31,1.23.63,1.84.95.68.35,1.34.71,2,1.07,1.09.6,2.14,1.21,3.18,1.82.07.04.13.08.2.12.52.31,1.04.63,1.55.95,1.1.67,2.16,1.36,3.2,2.04.52.34,1.03.69,1.54,1.04,1,.69,1.98,1.39,2.93,2.08,1.42,1.04,2.78,2.08,4.07,3.11.43.34.86.68,1.27,1.03.42.34.82.68,1.23,1.02.04.03.08.07.12.1.36.31.71.61,1.06.91.77.67,1.51,1.33,2.22,1.98,1.79,1.62,3.38,3.18,4.79,4.63.28.29.56.58.83.86,1.81,1.9,3.28,3.58,4.41,4.94.04.05.08.09.11.14,1.53,1.97,1.35,4.78-.43,6.55Z"/>
    <g>
      <path class="cls-1" d="M176.38,19.09c-1.04-.68-2.1-1.37-3.2-2.04,1.1.66,2.16,1.35,3.2,2.04Z"/>
      <path class="cls-1" d="M173.18,17.05c1.1.67,2.16,1.36,3.2,2.04-1.04-.69-2.1-1.38-3.2-2.04h0Z"/>
    </g>
    <g>
      <path class="cls-1" d="M180.85,22.21c-.95-.69-1.93-1.39-2.93-2.08,1.01.68,1.98,1.38,2.93,2.08Z"/>
      <path class="cls-1" d="M177.92,20.13c1,.69,1.98,1.39,2.93,2.08-.95-.7-1.92-1.4-2.93-2.08h0Z"/>
    </g>
    <g>
      <path class="cls-1" d="M184.92,25.32c-1.29-1.03-2.65-2.07-4.07-3.11,1.43,1.03,2.78,2.07,4.07,3.11Z"/>
      <path class="cls-1" d="M180.85,22.21c1.42,1.04,2.78,2.08,4.07,3.11-1.29-1.04-2.64-2.08-4.07-3.11h0Z"/>
    </g>
    <path class="cls-1" d="M33.44,32.99l1.38,1.33.47.45,5.01,4.85,27.5,26.58.84.82,2.13,2.06.1.1.04.04.72.71,1.11,1.07c-.28.45-.54.9-.8,1.36-.11.21-.23.41-.33.62-.14.26-.27.53-.4.8l-.12.25c-.67,1.39-1.25,2.88-1.73,4.43-.11.36-.2.71-.3,1.06v.04s-.02.04-.02.04c-.07.31-.15.61-.21.91-.19.83-.34,1.7-.45,2.59-.04.32-.09.66-.11,1.01-.03.33-.05.66-.07.99,0,.08-.01.15-.01.24-.01.33-.02.68-.02,1.01-.01,7.42,3.2,14.13,9.05,18.88.76.62,1.55,1.19,2.42,1.75,6.28,4.08,14.6,6.15,24.72,6.15,1.91,0,3.9-.08,5.93-.23,4.14-.3,8.27-.46,12.28-.46,29.05,0,54.18,7.97,72.66,23.04,20.85,17,30.99,41.71,27.13,66.1-2.05,12.97-8.09,25.43-17.45,36.03-10.37,11.74-24.52,21.14-42.06,27.95-9.89,3.84-21.32,5.78-33.98,5.78-1.75,0-3.55-.04-5.35-.11h-.04s-.04,0-.04,0c-.51,0-1.02-.04-1.54-.07-.57-.03-1.14-.06-1.72-.1-.46-.03-.91-.06-1.39-.1-2.5-.19-4.74-.41-6.87-.67-.49-.06-.98-.11-1.5-.19-1.15-.15-2.36-.32-3.71-.52-.54-.08-1.07-.16-1.65-.26-.52-.08-1.04-.16-1.53-.25-2.73-.47-5.4-.99-7.95-1.54-.5-.11-1-.21-1.49-.33h-.03s-.03-.01-.03-.01c-.49-.1-.98-.22-1.48-.34-5.9-1.36-11.92-3.04-17.95-5-.25-.08-.49-.15-.73-.24h-.04s-.04-.03-.04-.03c-1-.33-1.95-.65-2.89-.97-.31-.1-.62-.21-.92-.32-2.57-.9-5.06-1.82-7.58-2.81l-.27-.11c-.16-.07-.32-.13-.45-.18l-.31-.12-.5-.2c-.21-.09-.43-.18-.59-.24-1.06-.43-1.93-.8-2.58-1.08l-.06-.03c-.11-.05-.21-.1-.32-.14-1-.43-2.05-.64-3.12-.64-.1,0-.21,0-.31,0-.02,0-.04,0-.06,0-.12,0-.24,0-.33.02h-.52s-.17.08-.17.08c-.05,0-.09.01-.14.02-.8.11-1.59.28-2.36.5-.25.07-.54.16-.86.28-.27.09-.51.18-.73.28-.12.04-.22.09-.31.13-.25.11-.51.23-.79.38-.27.13-.5.27-.7.39-.11.06-.22.12-.32.2-.19.12-.38.26-.59.41-.24.17-.48.35-.71.55-.27.22-.48.42-.66.6-.13.12-.28.27-.43.45-.06.06-.12.13-.17.19-.05.05-.1.12-.17.2-.18.19-.32.37-.42.52-.18.23-.35.47-.5.7-.11.17-.22.34-.33.52-.04.06-.08.14-.13.22-.11.19-.22.4-.33.62-.11.2-.19.39-.26.54-.06.12-.11.23-.14.3-.1.22-.18.44-.26.67-.09.23-.17.47-.25.7-.15.45-.29.92-.41,1.45-.05.2-.09.41-.13.62v.07c-.05.18-.08.35-.11.52l-.03.17v.07s-.02.05-.02.05c-.03.21-.06.42-.09.63-.03.2-.05.4-.07.61l-.03.25c-.06.6-.1,1.17-.12,1.73h-1.86l-33.39.03h-1.95v-1.95l-.05-85.72v-1.96h48.7c.16.31.34.66.54,1.05.43.79.9,1.65,1.45,2.59.22.39.46.8.73,1.22.18.31.38.63.58.95l.05.08c.11.18.23.37.35.56l.16.25c1.38,2.17,2.86,4.3,4.41,6.34.51.67,1.02,1.33,1.52,1.95.14.18.28.36.44.55.13.16.26.31.39.47l.31.37c1.27,1.52,2.57,2.98,3.88,4.33.27.28.56.58.83.85,1.98,2.02,4.06,3.92,6.16,5.64.34.28.67.55,1.01.82l.1.08c3.42,2.7,7.01,5.04,10.67,6.95.43.22.86.45,1.27.65.27.13.53.26.81.39.38.18.76.36,1.14.54.37.18.73.33,1.07.47.35.17.69.3.98.41.4.17.87.36,1.36.54.61.24,1.27.48,2.06.74.36.13.71.25,1.09.37.45.14.9.29,1.37.42.27.08.55.16.81.23.45.13.89.24,1.35.36.46.12.92.23,1.36.33,1.17.27,2.42.52,3.83.75.37.07.72.12,1.08.16.24.04.48.07.73.11l.59.07.17.02c.42.05.85.1,1.28.14.04,0,.08,0,.11.01h.04s.12.02.12.02c.5.04,1,.08,1.5.11.26.02.51.04.78.05.59.03,1.13.06,1.66.07.64.02,1.29.03,1.94.03,7.18,0,14.67-1.21,22.28-3.6,11.6-3.64,20.42-12.74,23.02-23.76,2.35-9.94-.72-19.9-8.42-27.32-6.78-6.54-20.51-14.33-47.45-14.33-36.24,0-64.01-9.12-80.32-26.38-10.86-11.49-16.11-26.09-15.19-42.22.03-.51.06-1.03.11-1.55.02-.13.02-.24.03-.32.03-.36.07-.73.11-1.09v-.06s.01-.06.01-.06c.02-.21.04-.41.06-.61v-.05s0-.02,0-.02c.05-.43.1-.85.16-1.28v-.06s.06-.29.06-.29v-.05s.01-.05.01-.05c.03-.28.07-.57.12-.85v-.04s.01-.04.01-.04c.06-.44.14-.88.21-1.29l.03-.15v-.03s.01-.03.01-.03c.07-.43.16-.86.25-1.29v-.05s.02-.05.02-.05c.06-.36.14-.71.22-1.07l.03-.15v-.04c.02-.06.04-.11.05-.17l.02-.1c.1-.45.2-.9.32-1.35v-.02s.01-.02.01-.02c.21-.84.39-1.54.59-2.25.13-.49.28-.97.44-1.48.14-.48.3-.95.46-1.46.1-.34.25-.78.4-1.19v-.03s.02-.03.02-.03l.26-.72.07-.2c.4-1.1.83-2.23,1.3-3.35.98-2.36,2.1-4.71,3.34-7.01.29-.56.61-1.12.92-1.68.32-.56.64-1.13.98-1.68v-.02s.03-.02.03-.02c.27-.47.55-.92.86-1.42.48-.78.95-1.51,1.46-2.25l.02-.03.02-.03c.22-.34.44-.67.68-1.01l.03-.05.03-.05c.05-.08.11-.15.16-.23l.12-.17.02-.03.02-.03c.27-.4.56-.81.86-1.21l.02-.03.03-.05.09-.11.03-.04.03-.04c.34-.47.69-.93,1.05-1.42.46-.6,1-1.31,1.56-2,.17-.21.35-.42.52-.63.08-.1.17-.2.25-.3h.02s.28-.36.28-.36c.47-.57.87-1.04,1.28-1.51.44-.51.9-1.02,1.38-1.54.92-1.01,1.88-2.03,2.84-2.98l.03-.03.03-.03c.41-.42.85-.84,1.31-1.29M33.47,28.85c-1.19,1.09-2.35,2.19-3.47,3.32t-.02.02c-1.02,1.02-2.01,2.06-2.97,3.12-.48.52-.96,1.06-1.42,1.59-.46.52-.9,1.04-1.33,1.56-.03.02-.04.04-.06.06-.34.41-.67.82-1.01,1.23-.56.69-1.1,1.39-1.64,2.1-.37.49-.74.98-1.1,1.48-.07.09-.14.18-.2.27-.31.43-.62.86-.91,1.29-.12.17-.24.33-.35.5-.26.37-.5.73-.74,1.1-.54.79-1.05,1.58-1.54,2.38-.31.49-.61.98-.9,1.48-.35.58-.69,1.17-1.02,1.75-.33.59-.66,1.18-.97,1.77-1.28,2.38-2.43,4.8-3.45,7.25-.48,1.16-.93,2.32-1.35,3.49-.11.31-.22.62-.33.93-.17.45-.32.91-.46,1.36-.16.49-.32.99-.47,1.49-.16.52-.32,1.04-.46,1.56-.22.77-.42,1.54-.61,2.31-.14.53-.26,1.07-.38,1.6,0,.06-.03.12-.04.18-.1.45-.2.89-.28,1.34-.1.47-.19.94-.27,1.41,0,.05-.02.09-.03.14-.09.48-.17.96-.24,1.44-.06.34-.11.68-.15,1.02-.02.13-.04.26-.06.39-.06.46-.12.92-.17,1.38-.03.25-.06.5-.08.76-.05.42-.09.85-.13,1.27,0,.05,0,.1-.01.15-.05.58-.09,1.16-.12,1.73-2.1,36.87,26.91,71.76,98.51,71.76,22.68,0,37.23,5.64,45.37,13.49,16.06,15.49,7.19,39.6-13.42,46.06-7.71,2.42-14.83,3.46-21.38,3.46-.62,0-1.23-.01-1.84-.03-.54,0-1.08-.04-1.61-.07-.25,0-.48-.03-.72-.05-.49-.03-.97-.07-1.45-.11-.06,0-.12,0-.17-.02-.43-.04-.86-.09-1.28-.14-.25-.03-.5-.06-.74-.09-.23-.03-.45-.06-.68-.1-.34-.04-.67-.09-1-.15-1.24-.2-2.46-.43-3.65-.71-.44-.1-.88-.21-1.31-.32s-.85-.22-1.27-.34c-.26-.07-.52-.14-.78-.22-.45-.13-.89-.27-1.33-.41-.35-.11-.69-.23-1.03-.35-.66-.22-1.31-.45-1.94-.7-.44-.16-.88-.34-1.31-.52-.31-.12-.61-.24-.9-.38-.35-.14-.69-.29-1.03-.45-.38-.17-.76-.35-1.13-.53-.25-.11-.49-.23-.73-.35-.41-.2-.82-.41-1.22-.62-3.73-1.95-7.13-4.22-10.21-6.65-.35-.28-.7-.56-1.05-.85-2.14-1.75-4.12-3.58-5.94-5.43-.28-.28-.55-.56-.81-.83-1.34-1.39-2.58-2.79-3.73-4.17-.23-.28-.46-.55-.68-.82-.14-.17-.28-.34-.41-.51-.52-.64-1.02-1.28-1.49-1.9-1.67-2.19-3.09-4.27-4.27-6.13-.17-.27-.34-.53-.49-.78-.22-.35-.43-.68-.62-1.01-.25-.4-.48-.79-.69-1.16-.56-.96-1.03-1.82-1.42-2.54-.87-1.65-1.3-2.62-1.3-2.62H0v4.96l.05,85.72v4.95h4.95l33.39-.03h4.82c0-1.2-.02-2.76.15-4.42.03-.26.05-.52.09-.78.02-.19.05-.38.08-.57.04-.21.07-.42.12-.64.04-.2.08-.41.13-.61.09-.4.2-.81.34-1.21.06-.2.13-.4.21-.6.06-.18.13-.36.21-.54.02-.05.04-.1.07-.15.07-.16.14-.32.23-.48.09-.19.19-.38.3-.56.01-.03.03-.06.05-.09.09-.16.19-.31.29-.46.11-.18.24-.36.38-.53.08-.12.17-.24.29-.35.05-.08.12-.15.19-.23.02-.03.04-.05.07-.07.09-.12.2-.23.32-.34.16-.16.32-.32.5-.46.17-.15.36-.3.55-.43.17-.13.34-.25.52-.36.02-.02.04-.03.07-.04.21-.13.42-.26.65-.37.21-.12.43-.22.66-.32.04-.02.08-.04.12-.05.21-.09.43-.18.66-.25.22-.09.46-.16.7-.23.6-.17,1.25-.31,1.95-.41.13-.02.25-.04.39-.05.03,0,.06,0,.09,0,0,0,.02-.01.04-.01h.07s.09-.01.14-.01c.02,0,.04,0,.06,0,.1,0,.21,0,.31,0,.67,0,1.34.14,1.96.41.1.04.2.09.31.14.67.29,1.57.67,2.67,1.12.18.07.37.15.56.23.27.11.55.22.85.34.23.09.47.19.72.29,2.11.83,4.7,1.81,7.71,2.86.31.11.63.22.96.33.93.32,1.9.65,2.91.98.28.1.56.19.85.28,5.26,1.71,11.42,3.5,18.16,5.06.51.12,1.02.24,1.54.35.51.12,1.03.23,1.55.34,2.61.56,5.3,1.08,8.06,1.56.53.09,1.07.18,1.61.26.55.09,1.1.18,1.66.26,1.24.19,2.5.37,3.76.53.51.07,1.02.13,1.53.19,2.3.28,4.64.5,6.99.68.47.04.95.07,1.43.1.58.04,1.16.07,1.75.1.54.03,1.09.06,1.64.07,1.82.07,3.64.11,5.47.11,11.86,0,23.9-1.65,35.07-5.98,73.36-28.46,78.43-98.31,33.2-135.2-17.6-14.36-42.8-23.72-74.56-23.72-4.06,0-8.23.15-12.5.47-1.99.15-3.89.22-5.71.22-10.1,0-17.71-2.18-23.08-5.67-.77-.5-1.49-1.02-2.17-1.57-5.42-4.4-7.95-10.35-7.94-16.54,0-.31,0-.63.02-.94,0-.05,0-.09,0-.13.01-.31.03-.61.06-.92.02-.29.06-.59.1-.88.09-.77.22-1.54.4-2.31.06-.28.13-.57.2-.86.09-.33.18-.66.28-1,.41-1.34.92-2.67,1.55-3.98.16-.32.32-.65.49-.97.09-.18.19-.36.29-.54.61-1.1,1.3-2.18,2.06-3.23l-2.91-2.81-.82-.8-.05-.04-2.13-2.06s0,0,0,0l-28.33-27.39-5.01-4.85-.48-.46-3.42-3.31h0Z"/>
  </g>
  <path class="cls-1" d="M76.36,62.58c-9.91-5.09-19.49-10.86-29.13-16.44-4.21-2.43-8.4-4.89-12.65-7.26-2.73-1.52-5.96-3.72-8.81-1.01-1.33,1.27-1.83,3.87-.7,5.45,2.36,3.32,6.38,5.97,9.37,8.73,4.39,4.06,8.75,8.16,13.19,12.17,5.64,5.1,12.79,9.87,18.03,14.48.3-2.36.61-4.71.91-7.07h-.02c1.51.01,3.03.01,4.54.01-15.82-9.12-34.5-11.58-50.35-20.53-2.59-1.46-5.75-.1-6.61,2.69-2.59,8.39,4.98,14.34,11.43,18,11.56,6.55,24.62,10.59,37.01,15.24l2.39-8.68c-17.26-3.76-34.86-5.88-52.02-10.08-4.99-1.22-7.79,5.47-3.47,8.22,8.52,5.43,19.48,8.18,28.95,11.45,5.62,1.95,11.25,3.84,16.88,5.77,2.2.75,4.4,1.51,6.58,2.3.69.25,1.37.5,2.05.76,1.22.47-.02-.07.74.32,5.15,2.63,9.71-5.13,4.54-7.77-8.14-4.16-17.67-6.37-26.28-9.33-9.44-3.25-20.43-5.86-28.92-11.28l-3.47,8.22c17.16,4.2,34.76,6.32,52.02,10.08,5.73,1.25,7.77-6.66,2.39-8.68-9.97-3.74-20.15-7.16-29.79-11.73-3.12-1.48-13.84-5.65-12.37-10.43l-6.61,2.69c15.87,8.96,34.55,11.42,50.35,20.53,1.3.75,3.26.91,4.54,0h.02c2.2-1.57,3.26-5.02.91-7.08-5.44-4.79-11.59-8.7-17.02-13.57-4.27-3.83-8.45-7.76-12.66-11.66-1.81-1.68-3.63-3.36-5.46-5.02-.88-.8-1.76-1.59-2.65-2.38-.45-.4-2.81-2.93-1.4-.94l-.7,5.45.02-.02-4.38,1.16c-1.59-.34.51.32,1.27.73,1.37.74,2.72,1.53,4.08,2.3,4.31,2.46,8.6,4.95,12.9,7.43,8.53,4.93,17.03,10.01,25.8,14.51,5.14,2.64,9.7-5.12,4.54-7.77h0Z"/>
</svg>