<?xml version="1.0" encoding="UTF-8"?>
<svg id="Layer_2" data-name="Layer 2" xmlns="http://www.w3.org/2000/svg" viewBox="0 0 226.17 274.34">
  <defs>
    <style>
      .cls-1 {
        fill: #1f33b9;
      }
    </style>
  </defs>
  <path class="cls-1" d="M112.71,7c23.36,0,44.75,6.91,63.57,20.53,8.44,6.11,14.45,12.28,17.96,16.31l-30.3,29.71c-8.16-9.42-25.98-25.01-54.69-25.01-12.63,0-24.22,4.15-32.62,11.68-7.91,7.09-12.45,16.62-12.45,26.14,0,8.65,3.74,16.45,10.53,21.96,7.1,5.76,17.36,8.81,29.67,8.81,2,0,4.09-.08,6.21-.24,4.04-.3,8.07-.45,11.98-.45,28.12,0,52.38,7.66,70.14,22.14,19.73,16.09,29.34,39.41,25.7,62.38-1.94,12.22-7.64,23.98-16.5,34.01-9.95,11.26-23.57,20.29-40.51,26.86-9.43,3.66-20.4,5.51-32.6,5.51-35.71,0-70.44-15.87-70.79-16.03l-1.52-.71-1.68.06c-7.76.28-13.62,3.87-16.5,10.12-.87,1.88-1.38,3.79-1.68,5.6l-29.59.02-.04-81.62h42.3c2.42,4.37,6.92,11.6,13.69,18.82,14.26,15.21,31.83,23.24,50.81,23.24,7.58,0,15.47-1.27,23.48-3.78,12.94-4.06,22.79-14.27,25.72-26.66,2.68-11.35-.8-22.69-9.53-31.12-13.24-12.77-34.62-15.45-50.23-15.45-30.4,0-54.93-6.65-70.93-19.23-13.53-10.64-20.68-25.1-20.68-41.83,0-19.57,9.81-39.64,26.91-55.06C57.64,16.48,83.98,7,112.71,7M112.71,0C-8.92,0-48.56,156.83,103.24,156.83c22.68,0,37.23,5.64,45.37,13.49,16.06,15.49,7.19,39.6-13.42,46.06-7.71,2.42-14.83,3.46-21.38,3.46-41.58,0-60.23-42.06-60.23-42.06H0l.05,95.63,43.16-.03c-.01-4.8-.25-15.28,11.86-15.72,0,0,35.95,16.68,73.73,16.68,11.88,0,23.95-1.65,35.13-5.99,73.36-28.46,78.43-98.31,33.2-135.2-17.6-14.36-42.8-23.72-74.56-23.72-4.06,0-8.23.15-12.5.47-1.98.15-3.87.22-5.69.22-50.55,0-38.89-54.59,4.87-54.59,36.76,0,53.91,28.58,53.91,28.58l40.5-39.7S173.16,0,112.71,0h0Z"/>
</svg>